<mxfile host="app.diagrams.net" modified="2024-05-06T09:38:19.408Z" agent="Mozilla/5.0 (Windows NT 10.0; Win64; x64) AppleWebKit/537.36 (KHTML, like Gecko) Chrome/123.0.0.0 Safari/537.36" version="24.3.1" etag="RGFWQ6XpT1RwqfCp3PEd" type="github">
  <diagram name="第 1 页" id="kPzfmqkfwNRCoegnKST5">
    <mxGraphModel>
      <root>
        <mxCell id="0" />
        <mxCell id="1" parent="0" />
      </root>
    </mxGraphModel>
  </diagram>
</mxfile>
